<?xml version="1.0" encoding="utf-8"?>
<!-- Generator: Adobe Illustrator 16.0.0, SVG Export Plug-In . SVG Version: 6.00 Build 0)  -->
<!DOCTYPE svg PUBLIC "-//W3C//DTD SVG 1.0//EN" "http://www.w3.org/TR/2001/REC-SVG-20010904/DTD/svg10.dtd">
<svg version="1.0" id="Layer_1" xmlns="http://www.w3.org/2000/svg" xmlns:xlink="http://www.w3.org/1999/xlink" x="0px" y="0px"
	 width="187px" height="35px" viewBox="0 0 187 35" enable-background="new 0 0 187 35" xml:space="preserve">
<g>
	<path fill-rule="evenodd" clip-rule="evenodd" fill="#FFFFFF" d="M157.07,4.91v25.221h25.14V4.91H157.07z M152.189,0.101h34.9V35
		h-34.9V0.101z"/>
	<polygon fill-rule="evenodd" clip-rule="evenodd" fill="#FFFFFF" points="160.02,26.48 172.59,7.93 179.4,7.8 166.41,26.48 	"/>
	<path fill-rule="evenodd" clip-rule="evenodd" fill="#FFFFFF" d="M128.35,20.641h2.75v7.56l3.16-3.71h3.29l-3.36,3.92l3.711,6.391
		h-3.23l-2.34-4.4l-1.23,1.311v3.09h-2.75V20.641z M116.939,24.49h2.75v1.17c0.34-0.41,0.76-0.76,1.311-1.029
		c0.62-0.211,1.16-0.34,1.641-0.34c0.969,0,1.719,0.27,2.409,0.68c0.69,0.55,1.101,1.24,1.101,2.06v7.771h-2.75V28
		c0-0.42-0.141-0.76-0.41-0.97c-0.35-0.271-0.69-0.34-1.1-0.34c-0.551,0-0.961,0.069-1.311,0.28c-0.34,0.27-0.62,0.55-0.891,1.029
		v6.801h-2.75V24.49z M111.79,31.291v-1.58c-0.89,0.14-1.58,0.35-2.13,0.479c-1.03,0.28-1.51,0.76-1.51,1.38
		c0,0.48,0.069,0.75,0.34,0.96c0.279,0.21,0.619,0.28,1.1,0.28s0.96-0.141,1.37-0.42C111.38,32.19,111.65,31.771,111.79,31.291z
		 M108.49,27.58h-2.75c0-1.1,0.479-1.92,1.38-2.539c0.819-0.48,1.78-0.75,2.95-0.75c1.58,0,2.75,0.27,3.51,0.75
		c0.619,0.479,0.96,1.029,0.96,1.789v6.32c0,0.62,0.2,1.17,0.62,1.65h-2.82c-0.141-0.211-0.279-0.351-0.34-0.551
		c-0.07-0.14-0.141-0.35-0.21-0.619c-0.341,0.479-0.83,0.819-1.38,1.029c-0.48,0.211-1.09,0.34-1.85,0.34
		c-0.961,0-1.721-0.34-2.271-0.89c-0.62-0.62-0.96-1.37-0.96-2.2c0-0.82,0.279-1.58,0.76-2.13s1.16-0.89,2.061-1.03
		c1.58-0.27,2.33-0.41,2.399-0.41c0.83-0.209,1.24-0.479,1.24-0.76c0-0.41-0.14-0.75-0.479-0.89c-0.281-0.21-0.69-0.271-1.24-0.271
		c-0.48,0-0.82,0.131-1.17,0.271C108.63,26.9,108.49,27.17,108.49,27.58z M95.029,28.75v3.51h3.701c0.56,0,0.969-0.139,1.379-0.549
		c0.34-0.351,0.551-0.761,0.551-1.24c0-0.48-0.211-0.891-0.551-1.24c-0.41-0.34-0.819-0.48-1.379-0.48H95.029z M95.029,23.19v3.021
		h3.5c0.48,0,0.891-0.141,1.24-0.41c0.34-0.28,0.48-0.621,0.48-1.03c0-0.479-0.141-0.83-0.48-1.17c-0.35-0.28-0.689-0.41-1.17-0.41
		H95.029z M92.141,34.801v-14.16h7.209c1.03,0,1.93,0.35,2.61,1.1c0.76,0.76,1.17,1.65,1.17,2.75c0,0.62-0.14,1.17-0.41,1.721
		c-0.34,0.549-0.819,0.959-1.37,1.239c0.68,0.271,1.23,0.75,1.711,1.3c0.42,0.621,0.619,1.24,0.619,1.93
		c0,1.16-0.41,2.131-1.17,2.881c-0.75,0.83-1.58,1.24-2.68,1.24H92.141z M78.19,28.551h4.33c0-0.49-0.27-0.971-0.69-1.311
		c-0.41-0.41-0.89-0.619-1.44-0.619c-0.55,0-1.1,0.209-1.51,0.619C78.47,27.58,78.19,28.061,78.19,28.551z M82.52,31.5h2.68
		c-0.21,1.17-0.82,1.99-1.79,2.68C82.59,34.73,81.56,35,80.39,35c-1.44,0-2.61-0.55-3.57-1.58c-0.96-1.029-1.38-2.33-1.38-3.979
		c0-1.44,0.42-2.681,1.38-3.64c0.89-0.971,2.13-1.51,3.57-1.51c1.99,0,3.37,0.75,4.12,2.189c0.35,0.49,0.55,1.1,0.69,1.72
		c0.14,0.69,0.14,1.38,0.14,2.13h-7.15c0,0.551,0.21,1.03,0.62,1.51c0.41,0.551,0.96,0.83,1.58,0.83c0.48,0,0.89-0.14,1.31-0.279
		C82.04,32.19,82.31,31.91,82.52,31.5z M64.31,20.641h2.75v4.949c0.35-0.479,0.83-0.819,1.38-1.029c0.55-0.141,1.16-0.27,1.78-0.27
		c0.9,0,1.72,0.27,2.41,0.819c0.68,0.479,1.03,1.24,1.03,2.06v7.631h-2.68V28.34c0-0.549-0.21-0.959-0.48-1.239
		c-0.28-0.271-0.69-0.41-1.17-0.41c-0.55,0-1.1,0.14-1.58,0.479c-0.41,0.351-0.69,0.76-0.69,1.311v6.32h-2.75V20.641z M57.86,35
		c-1.45,0-2.62-0.55-3.58-1.58c-0.89-1.029-1.37-2.33-1.37-3.979c0-1.38,0.48-2.61,1.44-3.64c0.96-0.971,2.13-1.51,3.51-1.51
		c1.23,0,2.33,0.409,3.22,1.159c0.97,0.69,1.45,1.65,1.45,2.75h-2.75c0-0.479-0.21-0.819-0.55-1.1
		c-0.41-0.341-0.83-0.479-1.37-0.479c-0.69,0-1.17,0.279-1.59,0.829c-0.34,0.479-0.54,1.16-0.54,1.99c0,0.96,0.2,1.72,0.54,2.33
		c0.42,0.55,0.9,0.899,1.59,0.899c0.48,0,0.96-0.209,1.3-0.549c0.41-0.351,0.62-0.691,0.62-1.171h2.75c0,1.171-0.48,2.2-1.45,2.95
		C60.12,34.59,59.09,35,57.86,35z M42.33,31.291h2.75c0,0.479,0.13,0.899,0.55,1.17c0.34,0.279,0.82,0.41,1.37,0.41
		c0.48,0,0.89-0.061,1.17-0.201c0.34-0.14,0.55-0.479,0.55-0.899c0-0.55-0.48-0.96-1.58-1.229c-1.79-0.48-2.82-0.761-2.96-0.9
		c-1.1-0.48-1.65-1.16-1.65-2.12c0-0.97,0.42-1.72,1.17-2.341c0.76-0.619,1.79-0.889,3.02-0.889c1.24,0,2.2,0.27,3.03,0.819
		c0.89,0.62,1.37,1.44,1.37,2.61h-2.54c-0.07-0.41-0.28-0.75-0.62-0.961c-0.34-0.209-0.75-0.34-1.24-0.34
		c-0.41,0-0.75,0.131-1.03,0.271c-0.27,0.21-0.41,0.41-0.41,0.76c0,0.41,0.55,0.75,1.58,0.96c1.58,0.27,2.61,0.48,2.96,0.69
		c1.1,0.479,1.65,1.3,1.65,2.47s-0.49,2.061-1.45,2.609C49.2,34.73,48.24,35,47,35c-1.37,0-2.47-0.34-3.37-1.029
		C42.74,33.351,42.33,32.461,42.33,31.291z M39.58,21.541v2.949h1.58v1.93h-1.58v5.291c0,0.199,0.14,0.41,0.27,0.549
		c0.14,0.131,0.35,0.201,0.62,0.201h0.41c0.14-0.07,0.21-0.07,0.28-0.07v2.41c-0.34,0.07-0.69,0.14-0.89,0.14
		C39.99,35,39.65,35,39.17,35c-0.69,0-1.17-0.199-1.65-0.68c-0.41-0.42-0.62-0.9-0.62-1.51V26.42h-1.37v-1.93h1.37v-1.369
		L39.58,21.541z M25.01,24.49h2.75v6.801c0,0.35,0.21,0.689,0.48,0.969c0.35,0.271,0.76,0.41,1.17,0.41c0.55,0,1.03-0.14,1.44-0.479
		c0.42-0.42,0.62-0.83,0.62-1.31V24.49h2.68v10.311h-2.68V33.49c-0.82,1.03-1.85,1.51-3.09,1.51c-0.89,0-1.65-0.27-2.27-0.68
		c-0.68-0.48-1.1-1.17-1.1-2V24.49z M16.15,28.551h4.26c0-0.49-0.21-0.971-0.62-1.311c-0.48-0.41-0.96-0.619-1.51-0.619
		c-0.55,0-1.03,0.209-1.44,0.619C16.36,27.58,16.15,28.061,16.15,28.551z M20.41,31.5h2.75c-0.21,1.17-0.83,1.99-1.79,2.68
		C20.55,34.73,19.52,35,18.28,35c-1.44,0-2.61-0.55-3.5-1.58c-0.97-1.029-1.45-2.33-1.45-3.979c0-1.44,0.48-2.681,1.38-3.64
		c0.96-0.971,2.13-1.51,3.57-1.51c2.06,0,3.44,0.75,4.19,2.189c0.28,0.49,0.48,1.1,0.62,1.72c0.14,0.69,0.21,1.38,0.21,2.13h-7.15
		c0,0.551,0.21,1.03,0.55,1.51c0.48,0.551,0.96,0.83,1.58,0.83c0.48,0,0.96-0.14,1.31-0.279C20,32.19,20.27,31.91,20.41,31.5z
		 M2.96,23.19v9.069h2.75c1.1,0,1.85-0.489,2.4-1.379c0.48-0.82,0.69-1.851,0.69-3.16c0-1.1-0.21-2.131-0.69-2.95
		c-0.55-1.101-1.37-1.58-2.4-1.58H2.96z M0,34.801v-14.16h6.05c1.92,0,3.37,0.76,4.47,2.27c0.89,1.311,1.37,2.891,1.37,4.811
		c0,1.859-0.48,3.5-1.51,4.88c-1.1,1.44-2.54,2.2-4.33,2.2H0z"/>
</g>
</svg>
